<!DOCTYPE svg PUBLIC "-//W3C//DTD SVG 1.1//EN" "http://www.w3.org/Graphics/SVG/1.1/DTD/svg11.dtd">
<!-- Uploaded to: SVG Repo, www.svgrepo.com, Transformed by: SVG Repo Mixer Tools -->
<svg width="800px" height="800px" viewBox="0 0 17 17" version="1.1" xmlns="http://www.w3.org/2000/svg" xmlns:xlink="http://www.w3.org/1999/xlink" class="si-glyph si-glyph-file-box" fill="#000000">
<g id="SVGRepo_bgCarrier" stroke-width="0"/>
<g id="SVGRepo_tracerCarrier" stroke-linecap="round" stroke-linejoin="round"/>
<g id="SVGRepo_iconCarrier"> <title>862</title> <defs> </defs> <g stroke="none" stroke-width="1" fill="none" fill-rule="evenodd"> <g transform="translate(1.000000, 0.000000)" fill="#000000"> <path d="M13.993,0.006 L2.072,0.006 L0.012,8.761 L0.012,13.931 C0.012,15.265 0.484,15.959 1.816,15.959 L14.096,15.959 C15.342,15.959 15.981,15.432 15.981,13.848 L15.981,8.761 L13.993,0.006 L13.993,0.006 Z M10.016,10 L5.985,10 L5.985,8.969 L10.016,8.969 L10.016,10 L10.016,10 Z M1.505,8.01 L2.912,0.981 L13.177,0.981 L14.54,8.01 L1.505,8.01 L1.505,8.01 Z" class="si-glyph-fill"> </path> <rect x="4" y="4" width="7.947" height="0.968" class="si-glyph-fill"> </rect> <rect x="5" y="2" width="5.947" height="0.968" class="si-glyph-fill"> </rect> <rect x="3" y="6" width="9.951" height="0.965" class="si-glyph-fill"> </rect> </g> </g> </g>
</svg>