<?xml version="1.0" encoding="utf-8"?><!-- Uploaded to: SVG Repo, www.svgrepo.com, Generator: SVG Repo Mixer Tools -->
<svg fill="#000000" width="800px" height="800px" viewBox="0 0 24 24" xmlns="http://www.w3.org/2000/svg" id="folder-add" class="icon glyph"><path d="M22,7v7.77A3,3,0,0,0,20,14H19V13a3,3,0,0,0-6,0v1H12a3,3,0,0,0-2.23,5H4a2,2,0,0,1-2-2V4A2,2,0,0,1,4,2H9a2,2,0,0,1,1.41.59L12.83,5H20A2,2,0,0,1,22,7Zm-2,9H17V13a1,1,0,0,0-2,0v3H12a1,1,0,0,0,0,2h3v3a1,1,0,0,0,2,0V18h3a1,1,0,0,0,0-2Z"></path></svg>