<?xml version="1.0" encoding="utf-8"?><!-- Uploaded to: SVG Repo, www.svgrepo.com, Generator: SVG Repo Mixer Tools -->
<svg width="800px" height="800px" viewBox="0 0 24 24" fill="none" xmlns="http://www.w3.org/2000/svg">
<path d="M3 7C3 6.06812 3 5.60218 3.15224 5.23463C3.35523 4.74458 3.74458 4.35523 4.23463 4.15224C4.60218 4 5.06812 4 6 4H18C18.9319 4 19.3978 4 19.7654 4.15224C20.2554 4.35523 20.6448 4.74458 20.8478 5.23463C21 5.60218 21 6.06812 21 7C21 7.93188 21 8.39782 20.8478 8.76537C20.6448 9.25542 20.2554 9.64477 19.7654 9.84776C19.3978 10 18.9319 10 18 10H6C5.06812 10 4.60218 10 4.23463 9.84776C3.74458 9.64477 3.35523 9.25542 3.15224 8.76537C3 8.39782 3 7.93188 3 7Z" stroke="#000000" stroke-width="2" stroke-linecap="round"/>
<path d="M3 17C3 16.0681 3 15.6022 3.15224 15.2346C3.35523 14.7446 3.74458 14.3552 4.23463 14.1522C4.60218 14 5.06812 14 6 14H18C18.9319 14 19.3978 14 19.7654 14.1522C20.2554 14.3552 20.6448 14.7446 20.8478 15.2346C21 15.6022 21 16.0681 21 17C21 17.9319 21 18.3978 20.8478 18.7654C20.6448 19.2554 20.2554 19.6448 19.7654 19.8478C19.3978 20 18.9319 20 18 20H6C5.06812 20 4.60218 20 4.23463 19.8478C3.74458 19.6448 3.35523 19.2554 3.15224 18.7654C3 18.3978 3 17.9319 3 17Z" stroke="#000000" stroke-width="2" stroke-linecap="round"/>
</svg>