<?xml version="1.0" encoding="UTF-8"?>
<svg version="1.1" xmlns="http://www.w3.org/2000/svg" width="256" height="256">
<path d="M0 0 C5.002198 0.59771326 9.27922678 2.19472231 13.85546875 4.203125 C14.59775223 4.52279236 15.34003571 4.84245972 16.10481262 5.17181396 C18.46845168 6.19166429 20.82792768 7.22078117 23.1875 8.25 C24.75300133 8.92636917 26.31875451 9.60215574 27.88476562 10.27734375 C35.96241671 13.76744621 44.00395812 17.32595048 52 21 C52 24.63 52 28.26 52 32 C51.16041748 32.35191406 50.32083496 32.70382813 49.45581055 33.06640625 C46.94990487 34.11683309 44.44404753 35.16737474 41.93823242 36.21801758 C39.09878312 37.40851274 36.25907069 38.59837741 33.41918945 39.7878418 C27.20074278 42.39325425 20.98363836 45.00104344 14.78125 47.64453125 C13.4650769 48.20430664 13.4650769 48.20430664 12.12231445 48.77539062 C10.53363539 49.45208858 8.94617031 50.13164582 7.36010742 50.81445312 C2.22203975 53 2.22203975 53 0 53 C0 49.37 0 45.74 0 42 C9.10453702 37.61951521 18.37291816 33.74737308 27.74658203 29.98461914 C28.67067871 29.61199951 29.59477539 29.23937988 30.546875 28.85546875 C31.38057617 28.52184326 32.21427734 28.18821777 33.07324219 27.84448242 C34.96795431 27.15330583 34.96795431 27.15330583 36 26 C24.12 21.05 12.24 16.1 0 11 C0 7.37 0 3.74 0 0 Z " fill="#FFFFFF" transform="translate(177,101)"/>
<path d="M0 0 C0 3.63 0 7.26 0 11 C-11.88 15.95 -23.76 20.9 -36 26 C-31.06875062 28.46562469 -26.42022034 30.7309571 -21.34765625 32.76171875 C-20.15978516 33.24060547 -18.97191406 33.71949219 -17.74804688 34.21289062 C-16.53181641 34.69951172 -15.31558594 35.18613281 -14.0625 35.6875 C-11.61465729 36.66758525 -9.16833664 37.65122589 -6.72265625 38.63671875 C-5.64765869 39.06686279 -4.57266113 39.49700684 -3.46508789 39.94018555 C-1 41 -1 41 0 42 C0.07226502 43.85287502 0.0838122 45.70833878 0.0625 47.5625 C0.05347656 48.57441406 0.04445312 49.58632812 0.03515625 50.62890625 C0.02355469 51.41136719 0.01195312 52.19382813 0 53 C-6.50977704 50.95066672 -12.76755917 48.50809066 -19.03125 45.8046875 C-20.40694153 45.21531906 -20.40694153 45.21531906 -21.8104248 44.61404419 C-23.73048375 43.79049773 -25.64978721 42.96518781 -27.56835938 42.13818359 C-30.5175625 40.86743268 -33.46952002 39.60325212 -36.421875 38.33984375 C-38.29183163 37.53684237 -40.16162918 36.73347042 -42.03125 35.9296875 C-42.91655396 35.55053192 -43.80185791 35.17137634 -44.71398926 34.7807312 C-45.52573608 34.43011627 -46.33748291 34.07950134 -47.17382812 33.71826172 C-47.89058716 33.40976288 -48.60734619 33.10126404 -49.3458252 32.78341675 C-51 32 -51 32 -52 31 C-52.1424478 27.66672158 -52.04222103 24.33546107 -52 21 C-42.3751077 16.44626443 -32.6297602 12.23455955 -22.80322266 8.13867188 C-20.34167962 7.11109027 -17.88374484 6.07517223 -15.42578125 5.0390625 C-13.85437877 4.38230479 -12.28277182 3.72603601 -10.7109375 3.0703125 C-9.97974701 2.76102814 -9.24855652 2.45174377 -8.49520874 2.13308716 C-5.50691151 0.89583923 -3.26783172 0 0 0 Z " fill="#FFFFFF" transform="translate(79,101)"/>
<path d="M0 0 C2.97 0 5.94 0 9 0 C8.42626512 5.35587748 7.50709417 10.31427995 6.05053711 15.51757812 C5.85531967 16.22100342 5.66010223 16.92442871 5.45896912 17.64916992 C4.82046918 19.94473517 4.17399105 22.23796787 3.52734375 24.53125 C3.07987086 26.13393516 2.63290297 27.7367614 2.18641663 29.33972168 C1.01600375 33.53649407 -0.16121443 37.7313273 -1.33990479 41.92578125 C-2.54390464 46.21498623 -3.74139686 50.50600685 -4.93945312 54.796875 C-7.2866367 63.19969784 -9.64101945 71.60048141 -12 80 C-14.97 80 -17.94 80 -21 80 C-22.59262715 76.81474569 -21.04077181 73.87936724 -20.09399414 70.61279297 C-19.87956161 69.85172241 -19.66512909 69.09065186 -19.44419861 68.30651855 C-18.73136648 65.78307823 -18.00830407 63.26268917 -17.28515625 60.7421875 C-16.78985133 58.99644537 -16.29518447 57.2505221 -15.8011322 55.50442505 C-14.4972374 50.90272805 -13.18466039 46.30355106 -11.87030029 41.70483398 C-10.53135888 37.01434061 -9.20058773 32.32153133 -7.86914062 27.62890625 C-5.25411472 18.41697719 -2.62991686 9.20768798 0 0 Z " fill="#FFFFFF" transform="translate(134,87)"/>
</svg>
